<?xml version="1.0" encoding="UTF-8"?>
<!-- Generator: visioncortex VTracer 0.6.12 -->
<svg version="1.1" xmlns="http://www.w3.org/2000/svg" width="1583" height="1749">
<path d="M0 0 C0.918 0.008 1.837 0.017 2.783 0.025 C20.659 0.469 32.508 9.648 44.457 22.062 C47.432 25.207 50.323 28.412 53.121 31.715 C55.223 34.122 57.503 36.328 59.783 38.564 C61.559 40.371 63.22 42.232 64.871 44.152 C68.539 48.37 72.342 52.444 76.188 56.5 C77.603 57.998 79.018 59.497 80.434 60.996 C80.785 61.369 80.785 61.369 82.566 63.253 C85.639 66.513 88.696 69.786 91.75 73.062 C92.035 73.368 92.035 73.368 93.475 74.912 C94.619 76.14 95.763 77.367 96.907 78.595 C99.812 81.71 102.718 84.824 105.625 87.938 C106.792 89.187 107.958 90.437 109.125 91.688 C109.702 92.306 110.28 92.925 110.875 93.562 C112.625 95.438 114.375 97.312 116.125 99.188 C116.703 99.806 117.28 100.425 117.875 101.063 C119.041 102.311 120.206 103.56 121.371 104.808 C124.311 107.959 127.252 111.109 130.195 114.258 C135.668 120.115 141.133 125.978 146.562 131.875 C152.281 138.084 158.055 144.24 163.832 150.395 C169.198 156.111 174.544 161.845 179.891 167.579 C182.802 170.699 185.713 173.818 188.625 176.938 C189.792 178.187 190.958 179.437 192.125 180.688 C192.414 180.997 192.414 180.997 193.875 182.562 C195.625 184.438 197.375 186.312 199.125 188.188 C199.703 188.806 200.28 189.425 200.875 190.063 C202.041 191.311 203.206 192.56 204.371 193.808 C207.311 196.959 210.252 200.109 213.195 203.258 C218.668 209.115 224.133 214.978 229.562 220.875 C235.281 227.084 241.055 233.24 246.832 239.395 C252.198 245.111 257.544 250.845 262.891 256.579 C265.218 259.073 267.546 261.567 269.873 264.061 C271.039 265.31 272.205 266.559 273.371 267.808 C276.311 270.959 279.252 274.109 282.195 277.258 C287.668 283.115 293.133 288.978 298.562 294.875 C304.281 301.084 310.055 307.24 315.832 313.395 C321.198 319.111 326.544 324.845 331.891 330.579 C334.802 333.699 337.713 336.818 340.625 339.938 C341.792 341.187 342.958 342.437 344.125 343.688 C344.702 344.306 345.28 344.925 345.875 345.562 C347.625 347.437 349.375 349.313 351.125 351.188 C351.703 351.806 352.28 352.425 352.875 353.063 C354.041 354.311 355.206 355.56 356.371 356.808 C359.311 359.959 362.252 363.109 365.195 366.258 C370.668 372.115 376.133 377.978 381.562 383.875 C387.281 390.084 393.055 396.24 398.832 402.395 C404.198 408.111 409.544 413.845 414.891 419.579 C417.218 422.073 419.546 424.567 421.873 427.061 C423.039 428.31 424.205 429.559 425.371 430.808 C428.311 433.959 431.252 437.109 434.195 440.258 C439.668 446.115 445.133 451.978 450.562 457.875 C456.281 464.084 462.055 470.24 467.832 476.395 C473.198 482.111 478.544 487.845 483.891 493.579 C486.802 496.699 489.713 499.818 492.625 502.938 C493.792 504.187 494.958 505.437 496.125 506.688 C496.702 507.306 497.28 507.925 497.875 508.562 C499.625 510.438 501.375 512.312 503.125 514.188 C503.703 514.806 504.28 515.425 504.875 516.063 C506.041 517.311 507.206 518.56 508.371 519.808 C511.311 522.959 514.252 526.109 517.195 529.258 C522.668 535.115 528.133 540.978 533.562 546.875 C539.28 553.083 545.052 559.238 550.828 565.391 C555.624 570.5 560.408 575.621 565.184 580.75 C567.541 583.28 569.909 585.8 572.285 588.312 C572.581 588.627 572.581 588.627 574.08 590.22 C575.2 591.411 576.324 592.599 577.452 593.784 C579.642 596.119 581.51 598.245 583.16 601.004 C585.01 604.078 587.296 606.261 589.875 608.75 C593.777 612.56 597.475 616.462 601.016 620.609 C603.189 623.078 605.53 625.353 607.875 627.656 C610.331 630.156 612.588 632.814 614.875 635.469 C616.563 637.368 618.313 639.158 620.125 640.938 C623.219 643.976 626.046 647.185 628.875 650.469 C631.109 652.982 633.491 655.316 635.891 657.668 C637.648 659.461 639.258 661.329 640.875 663.25 C643.743 666.589 646.841 669.508 650.125 672.438 C654.065 675.952 657.619 679.539 661.016 683.574 C662.642 685.457 664.349 687.196 666.125 688.938 C668.486 691.253 670.704 693.633 672.859 696.141 C676.589 700.43 680.463 704.565 684.375 708.688 C685.786 710.182 687.196 711.677 688.605 713.172 C688.947 713.534 688.947 713.534 690.677 715.369 C702.836 728.281 702.836 728.281 707.188 734.062 C710.43 738.362 714.124 742.056 718 745.785 C720.722 748.536 723.24 751.406 725.773 754.329 C728.824 757.802 732.007 761.146 735.188 764.5 C736.603 765.998 738.018 767.497 739.434 768.996 C740.137 769.741 740.841 770.486 741.566 771.253 C744.639 774.513 747.695 777.786 750.75 781.062 C751.032 781.365 751.032 781.365 752.462 782.895 C755.429 786.073 758.385 789.261 761.328 792.461 C766.643 798.225 771.86 803.879 777.898 808.902 C780.491 811.208 782.669 813.827 784.91 816.469 C786.577 818.382 788.313 820.162 790.125 821.938 C793.219 824.976 796.046 828.185 798.875 831.469 C800.563 833.368 802.313 835.158 804.125 836.938 C807.225 839.982 810.06 843.198 812.891 846.492 C814.484 848.279 816.138 849.917 817.875 851.562 C821.206 854.819 823.992 858.431 826.812 862.125 C831.43 868.152 836.463 873.471 841.902 878.754 C844.786 881.596 847.428 884.564 850.051 887.645 C852.21 890.103 854.542 892.365 856.875 894.656 C859.331 897.156 861.588 899.814 863.875 902.469 C866.075 904.944 868.42 907.246 870.783 909.565 C872.55 911.362 874.204 913.211 875.848 915.121 C879.659 919.504 883.588 923.765 887.562 928 C887.895 928.358 887.895 928.358 889.576 930.17 C893.496 934.348 897.553 938.2 901.904 941.926 C903.847 943.633 905.542 945.443 907.188 947.438 C909.407 950.055 911.674 952.535 914.125 954.938 C917.219 957.976 920.046 961.185 922.875 964.469 C924.563 966.368 926.313 968.158 928.125 969.938 C931.222 972.979 934.053 976.191 936.883 979.48 C938.523 981.323 940.226 983.037 942 984.75 C945.77 988.453 949.011 992.526 952.328 996.633 C959.968 1005.962 968.44 1014.603 976.696 1023.384 C979.7 1026.583 982.694 1029.791 985.688 1033 C986.26 1033.614 986.833 1034.228 987.422 1034.86 C988.577 1036.098 989.732 1037.336 990.887 1038.574 C992.643 1040.456 994.399 1042.338 996.156 1044.219 C1003.994 1052.611 1011.816 1061.019 1019.625 1069.438 C1018.289 1072.386 1016.804 1074.535 1014.57 1076.871 C1013.962 1077.513 1013.353 1078.155 1012.727 1078.816 C1012.4 1079.156 1012.4 1079.156 1010.75 1080.875 C1009.377 1082.321 1008.005 1083.768 1006.633 1085.215 C1005.951 1085.931 1005.27 1086.648 1004.567 1087.386 C1001.892 1090.211 999.256 1093.071 996.625 1095.938 C990.929 1102.127 985.175 1108.262 979.418 1114.395 C975.793 1118.257 972.176 1122.127 968.562 1126 C967.989 1126.615 967.416 1127.229 966.825 1127.863 C965.669 1129.101 964.514 1130.34 963.359 1131.579 C960.448 1134.699 957.537 1137.818 954.625 1140.938 C953.458 1142.187 952.292 1143.437 951.125 1144.688 C944.125 1152.187 944.125 1152.187 942.375 1154.063 C941.209 1155.311 940.044 1156.56 938.879 1157.808 C935.939 1160.959 932.998 1164.109 930.055 1167.258 C924.582 1173.115 919.117 1178.978 913.688 1184.875 C907.969 1191.084 902.195 1197.24 896.418 1203.395 C892.793 1207.257 889.176 1211.127 885.562 1215 C884.989 1215.615 884.416 1216.229 883.825 1216.863 C882.669 1218.101 881.514 1219.34 880.359 1220.579 C878.032 1223.073 875.704 1225.567 873.377 1228.061 C872.211 1229.31 871.045 1230.559 869.879 1231.808 C866.939 1234.959 863.998 1238.109 861.055 1241.258 C855.582 1247.115 850.117 1252.978 844.688 1258.875 C838.969 1265.084 833.195 1271.24 827.418 1277.395 C823.793 1281.257 820.176 1285.127 816.562 1289 C815.989 1289.615 815.416 1290.229 814.825 1290.863 C813.669 1292.101 812.514 1293.34 811.359 1294.579 C809.032 1297.074 806.703 1299.568 804.375 1302.062 C803.215 1303.306 802.054 1304.549 800.895 1305.793 C797.871 1309.035 794.843 1312.272 791.809 1315.504 C791.181 1316.173 790.554 1316.842 789.908 1317.531 C788.717 1318.802 787.524 1320.072 786.33 1321.34 C782.959 1324.939 779.746 1328.619 776.625 1332.438 C780.786 1338.501 785.576 1343.513 790.8 1348.644 C794.405 1352.191 797.811 1355.824 801.086 1359.68 C803.23 1362.129 805.554 1364.376 807.875 1366.656 C810.331 1369.156 812.588 1371.814 814.875 1374.469 C816.563 1376.368 818.313 1378.158 820.125 1379.938 C823.219 1382.976 826.046 1386.185 828.875 1389.469 C830.563 1391.368 832.313 1393.158 834.125 1394.938 C837.219 1397.976 840.046 1401.185 842.875 1404.469 C844.563 1406.368 846.313 1408.158 848.125 1409.938 C851.093 1412.86 853.83 1415.916 856.539 1419.078 C858.169 1420.921 859.823 1422.708 861.523 1424.484 C873.877 1437.431 881.063 1449.815 880.836 1468.156 C879.866 1483.237 873.51 1495.132 862.625 1505.438 C850.789 1515.248 836.535 1517.47 821.625 1516.438 C801.586 1513.272 789.701 1498.697 776.645 1484.614 C774.737 1482.558 772.823 1480.508 770.906 1478.461 C764.987 1472.138 759.097 1465.788 753.229 1459.417 C747.994 1453.74 742.707 1448.114 737.422 1442.484 C727.117 1431.506 716.865 1420.477 706.625 1409.438 C699.77 1412.514 695.186 1418.884 690.375 1424.469 C688.146 1426.977 685.768 1429.306 683.375 1431.656 C681.543 1433.521 679.831 1435.457 678.125 1437.438 C675.343 1440.667 672.415 1443.671 669.375 1446.656 C667.543 1448.521 665.831 1450.457 664.125 1452.438 C661.343 1455.667 658.415 1458.671 655.375 1461.656 C653.543 1463.521 651.831 1465.457 650.125 1467.438 C647.343 1470.667 644.415 1473.671 641.375 1476.656 C639.543 1478.521 637.831 1480.457 636.125 1482.438 C633.339 1485.671 630.413 1488.681 627.359 1491.66 C625.578 1493.485 623.99 1495.403 622.375 1497.375 C613.661 1507.367 601.793 1513.755 588.625 1515.438 C571.672 1516.505 558.358 1512.35 545.145 1501.793 C542.377 1499.206 539.952 1496.442 537.484 1493.572 C534.443 1490.08 531.248 1486.735 528.062 1483.375 C526.647 1481.877 525.232 1480.378 523.816 1478.879 C523.113 1478.134 522.409 1477.389 521.684 1476.622 C518.611 1473.362 515.554 1470.089 512.5 1466.812 C511.931 1466.202 511.362 1465.592 510.775 1464.963 C509.631 1463.735 508.487 1462.508 507.343 1461.28 C504.438 1458.165 501.532 1455.051 498.625 1451.938 C497.458 1450.688 496.292 1449.438 495.125 1448.188 C494.548 1447.569 493.97 1446.95 493.375 1446.312 C491.625 1444.437 489.875 1442.563 488.125 1440.688 C487.547 1440.069 486.97 1439.45 486.375 1438.812 C485.209 1437.564 484.044 1436.315 482.879 1435.067 C479.939 1431.916 476.998 1428.766 474.055 1425.617 C468.582 1419.76 463.117 1413.897 457.688 1408 C451.969 1401.791 446.195 1395.635 440.418 1389.48 C435.052 1383.764 429.706 1378.03 424.359 1372.296 C421.448 1369.176 418.537 1366.057 415.625 1362.938 C414.458 1361.688 413.292 1360.438 412.125 1359.188 C411.548 1358.569 410.97 1357.95 410.375 1357.312 C408.625 1355.437 406.875 1353.563 405.125 1351.688 C404.547 1351.069 403.97 1350.45 403.375 1349.812 C402.209 1348.564 401.044 1347.315 399.879 1346.067 C396.939 1342.916 393.998 1339.766 391.055 1336.617 C385.582 1330.76 380.117 1324.897 374.688 1319 C368.969 1312.791 363.195 1306.635 357.418 1300.48 C352.052 1294.764 346.706 1289.03 341.359 1283.296 C339.032 1280.802 336.704 1278.308 334.377 1275.814 C333.211 1274.565 332.045 1273.316 330.879 1272.067 C327.939 1268.916 324.998 1265.766 322.055 1262.617 C316.582 1256.76 311.117 1250.897 305.688 1245 C299.969 1238.791 294.195 1232.635 288.418 1226.48 C283.052 1220.764 277.706 1215.03 272.359 1209.296 C269.448 1206.176 266.537 1203.057 263.625 1199.938 C262.458 1198.688 261.292 1197.438 260.125 1196.188 C259.548 1195.569 258.97 1194.95 258.375 1194.312 C256.625 1192.437 254.875 1190.563 253.125 1188.688 C252.547 1188.069 251.97 1187.45 251.375 1186.812 C250.209 1185.564 249.044 1184.315 247.879 1183.067 C244.939 1179.916 241.998 1176.766 239.055 1173.617 C233.582 1167.76 228.117 1161.897 222.688 1156 C216.969 1149.791 211.195 1143.635 205.418 1137.48 C200.052 1131.764 194.706 1126.03 189.359 1120.296 C187.032 1117.802 184.704 1115.308 182.377 1112.814 C181.211 1111.565 180.045 1110.316 178.879 1109.067 C175.939 1105.916 172.998 1102.766 170.055 1099.617 C164.582 1093.76 159.117 1087.897 153.688 1082 C147.969 1075.791 142.195 1069.635 136.418 1063.48 C131.052 1057.764 125.706 1052.03 120.359 1046.296 C117.448 1043.176 114.537 1040.057 111.625 1036.938 C110.458 1035.688 109.292 1034.438 108.125 1033.188 C107.548 1032.569 106.97 1031.95 106.375 1031.312 C104.625 1029.437 102.875 1027.563 101.125 1025.688 C100.547 1025.069 99.97 1024.45 99.375 1023.812 C98.209 1022.564 97.044 1021.315 95.879 1020.067 C92.939 1016.916 89.998 1013.766 87.055 1010.617 C81.582 1004.76 76.117 998.897 70.688 993 C64.969 986.791 59.195 980.635 53.418 974.48 C48.052 968.764 42.706 963.03 37.359 957.296 C35.032 954.802 32.704 952.308 30.377 949.814 C29.211 948.565 28.045 947.316 26.879 946.067 C23.939 942.916 20.998 939.766 18.055 936.617 C12.582 930.76 7.117 924.897 1.688 919 C-2.767 914.164 -7.251 909.357 -11.75 904.562 C-12.379 903.892 -13.008 903.222 -13.657 902.531 C-14.93 901.174 -16.204 899.817 -17.477 898.46 C-21.709 893.95 -25.937 889.435 -30.145 884.902 C-32.163 882.728 -34.2 880.575 -36.262 878.441 C-47.697 866.391 -53.584 853.307 -53.469 836.688 C-53.468 836.252 -53.468 836.252 -53.463 834.043 C-53.455 831.109 -53.44 828.175 -53.426 825.241 C-53.419 823.12 -53.412 820.998 -53.406 818.877 C-53.392 814.26 -53.376 809.642 -53.356 805.025 C-53.325 797.513 -53.301 790 -53.279 782.488 C-53.275 781.195 -53.271 779.903 -53.267 778.571 C-53.261 776.582 -53.255 774.592 -53.249 772.603 C-53.237 768.505 -53.224 764.408 -53.21 760.311 C-53.143 739.546 -53.101 718.781 -53.077 698.016 C-53.075 696.55 -53.073 695.084 -53.072 693.618 C-53.055 680.142 -53.041 666.665 -53.028 653.189 C-53.019 643.946 -53.01 634.703 -52.999 625.46 C-52.998 625.076 -52.998 625.076 -52.996 623.134 C-52.967 598.266 -52.889 573.398 -52.786 548.53 C-52.681 522.951 -52.628 497.371 -52.64 471.792 C-52.642 468.175 -52.643 464.559 -52.644 460.943 C-52.644 460.587 -52.644 460.587 -52.644 458.786 C-52.645 447.354 -52.591 435.923 -52.515 424.492 C-52.439 412.99 -52.424 401.489 -52.465 389.986 C-52.485 383.759 -52.48 377.535 -52.404 371.309 C-52.335 365.599 -52.341 359.895 -52.404 354.185 C-52.414 352.128 -52.398 350.071 -52.351 348.015 C-52.127 337.612 -52.76 330.268 -59.887 322.272 C-62.607 319.499 -65.423 316.871 -68.332 314.298 C-71.594 311.327 -74.533 308.073 -77.5 304.812 C-78.647 303.579 -79.795 302.347 -80.945 301.117 C-81.51 300.511 -82.075 299.905 -82.657 299.28 C-84.977 296.791 -87.299 294.304 -89.621 291.816 C-91.37 289.943 -93.119 288.069 -94.867 286.195 C-97.226 283.668 -99.585 281.142 -101.945 278.617 C-107.418 272.76 -112.883 266.897 -118.312 261 C-124.031 254.791 -129.805 248.635 -135.582 242.48 C-140.948 236.764 -146.294 231.03 -151.641 225.296 C-153.968 222.802 -156.296 220.308 -158.624 217.814 C-159.788 216.566 -160.952 215.319 -162.116 214.071 C-165.684 210.247 -169.255 206.427 -172.83 202.61 C-174.597 200.717 -176.357 198.818 -178.117 196.918 C-180.109 194.773 -182.126 192.686 -184.195 190.613 C-196.074 178.462 -200.668 165.543 -200.692 148.862 C-200.596 141.681 -199.85 135.825 -196.375 129.438 C-195.951 128.594 -195.527 127.751 -195.09 126.883 C-188.401 114.622 -177.854 106.161 -164.578 101.98 C-150.642 98.546 -136.501 100.1 -123.816 106.859 C-119.19 109.85 -115.301 113.597 -111.375 117.438 C-110.736 118.05 -110.096 118.662 -109.438 119.293 C-105.792 122.849 -102.447 126.613 -99.125 130.469 C-96.925 132.944 -94.581 135.245 -92.218 137.563 C-90.443 139.369 -88.783 141.228 -87.133 143.148 C-83.444 147.39 -79.619 151.485 -75.75 155.562 C-70.669 160.928 -65.618 166.32 -60.592 171.738 C-59.993 172.384 -59.393 173.03 -58.775 173.696 C-57.308 175.276 -55.842 176.857 -54.375 178.438 C-54.374 178.1 -54.374 178.1 -54.368 176.394 C-54.308 159.941 -54.233 143.489 -54.139 127.036 C-54.094 119.08 -54.055 111.123 -54.029 103.167 C-54.006 96.227 -53.972 89.287 -53.926 82.348 C-53.902 78.678 -53.884 75.008 -53.877 71.337 C-53.87 67.228 -53.84 63.118 -53.807 59.009 C-53.809 57.808 -53.81 56.608 -53.812 55.371 C-53.64 39.799 -49.475 27.074 -38.703 15.695 C-27.927 5.245 -15.044 -0.177 0 0 Z M48.625 177.438 C48.344 191.963 48.133 206.488 48.003 221.016 C47.942 227.763 47.858 234.508 47.72 241.253 C47.589 247.77 47.517 254.285 47.486 260.802 C47.464 263.282 47.421 265.762 47.356 268.242 C46.816 289.722 46.816 289.722 52.816 296.274 C55.285 298.549 57.901 300.473 60.625 302.438 C61.927 303.813 63.199 305.22 64.402 306.684 C67.87 310.747 71.512 314.624 75.188 318.5 C76.603 319.998 78.018 321.497 79.434 322.996 C80.137 323.741 80.841 324.486 81.566 325.253 C84.639 328.513 87.696 331.786 90.75 335.062 C91.319 335.673 91.888 336.283 92.475 336.912 C93.619 338.14 94.763 339.367 95.907 340.595 C98.812 343.71 101.718 346.824 104.625 349.938 C105.792 351.187 106.958 352.437 108.125 353.688 C108.414 353.997 108.414 353.997 109.875 355.562 C111.625 357.438 113.375 359.312 115.125 361.188 C115.703 361.806 116.28 362.425 116.875 363.063 C118.041 364.311 119.206 365.56 120.371 366.808 C123.311 369.959 126.252 373.109 129.195 376.258 C134.668 382.115 140.133 387.978 145.562 393.875 C151.281 400.084 157.055 406.24 162.832 412.395 C168.198 418.111 173.544 423.845 178.891 429.579 C181.802 432.699 184.713 435.818 187.625 438.938 C188.792 440.187 189.958 441.437 191.125 442.688 C191.702 443.306 192.28 443.925 192.875 444.562 C193.75 445.5 193.75 445.5 198.125 450.188 C198.414 450.497 198.414 450.497 199.875 452.063 C201.041 453.311 202.206 454.56 203.371 455.808 C206.311 458.959 209.252 462.109 212.195 465.258 C217.668 471.115 223.133 476.978 228.562 482.875 C234.281 489.084 240.055 495.24 245.832 501.395 C251.198 507.111 256.544 512.845 261.891 518.579 C264.218 521.073 266.546 523.567 268.873 526.061 C270.039 527.31 271.205 528.559 272.371 529.808 C275.311 532.959 278.252 536.109 281.195 539.258 C286.668 545.115 292.133 550.978 297.562 556.875 C303.281 563.084 309.055 569.24 314.832 575.395 C320.198 581.111 325.544 586.845 330.891 592.579 C333.802 595.699 336.713 598.818 339.625 601.938 C340.792 603.187 341.958 604.437 343.125 605.688 C343.702 606.306 344.28 606.925 344.875 607.562 C346.625 609.437 348.375 611.313 350.125 613.188 C350.703 613.806 351.28 614.425 351.875 615.063 C353.041 616.311 354.206 617.56 355.371 618.808 C358.311 621.959 361.252 625.109 364.195 628.258 C369.668 634.115 375.133 639.978 380.562 645.875 C386.281 652.084 392.055 658.24 397.832 664.395 C403.198 670.111 408.544 675.845 413.891 681.579 C416.218 684.073 418.546 686.567 420.873 689.061 C422.039 690.31 423.205 691.559 424.371 692.808 C427.311 695.959 430.252 699.109 433.195 702.258 C438.668 708.115 444.133 713.978 449.562 719.875 C455.281 726.084 461.055 732.24 466.832 738.395 C472.198 744.111 477.544 749.845 482.891 755.579 C485.802 758.699 488.713 761.818 491.625 764.938 C492.792 766.187 493.958 767.437 495.125 768.688 C495.702 769.306 496.28 769.925 496.875 770.562 C498.625 772.438 500.375 774.312 502.125 776.188 C502.703 776.806 503.28 777.425 503.875 778.063 C505.041 779.311 506.206 780.56 507.371 781.808 C510.311 784.959 513.252 788.109 516.195 791.258 C521.668 797.115 527.133 802.978 532.562 808.875 C538.281 815.084 544.055 821.24 549.832 827.395 C555.198 833.111 560.544 838.845 565.891 844.579 C568.218 847.073 570.546 849.567 572.873 852.061 C574.039 853.31 575.205 854.559 576.371 855.808 C579.311 858.959 582.252 862.109 585.195 865.258 C590.668 871.115 596.133 876.978 601.562 882.875 C607.281 889.084 613.055 895.24 618.832 901.395 C624.198 907.111 629.544 912.845 634.891 918.579 C637.802 921.699 640.713 924.818 643.625 927.938 C644.792 929.187 645.958 930.437 647.125 931.688 C647.702 932.306 648.28 932.925 648.875 933.562 C650.625 935.437 652.375 937.312 654.125 939.188 C654.703 939.806 655.28 940.425 655.875 941.063 C657.041 942.311 658.206 943.56 659.371 944.808 C662.311 947.959 665.252 951.109 668.195 954.258 C673.668 960.115 679.133 965.978 684.562 971.875 C690.281 978.084 696.055 984.24 701.832 990.395 C706.034 994.871 710.229 999.354 714.408 1003.852 C717.379 1007.048 720.371 1010.22 723.402 1013.359 C736.223 1026.703 745.074 1040.2 744.84 1059.375 C743.815 1073.984 738.199 1085.435 727.625 1095.438 C714.467 1106.176 699.99 1107.572 683.625 1106.438 C665.163 1103.201 651.834 1086.808 640.223 1073.246 C638.591 1071.399 636.885 1069.663 635.125 1067.938 C632.031 1064.899 629.204 1061.69 626.375 1058.406 C624.687 1056.507 622.937 1054.717 621.125 1052.938 C618.031 1049.899 615.204 1046.69 612.375 1043.406 C610.687 1041.507 608.937 1039.717 607.125 1037.938 C604.031 1034.899 601.204 1031.69 598.375 1028.406 C596.687 1026.507 594.937 1024.717 593.125 1022.938 C590.031 1019.899 587.204 1016.69 584.375 1013.406 C582.175 1010.931 579.831 1008.63 577.469 1006.312 C575.692 1004.505 574.031 1002.644 572.379 1000.723 C568.711 996.505 564.908 992.431 561.062 988.375 C559.647 986.877 558.232 985.378 556.816 983.879 C556.113 983.134 555.409 982.389 554.684 981.622 C551.611 978.362 548.554 975.089 545.5 971.812 C544.931 971.202 544.362 970.592 543.775 969.963 C542.631 968.735 541.487 967.508 540.343 966.28 C537.438 963.165 534.532 960.051 531.625 956.938 C530.458 955.688 529.292 954.438 528.125 953.188 C527.548 952.569 526.97 951.95 526.375 951.312 C524.625 949.438 522.875 947.562 521.125 945.688 C520.547 945.069 519.97 944.45 519.375 943.812 C518.209 942.564 517.044 941.315 515.879 940.067 C512.939 936.916 509.998 933.766 507.055 930.617 C501.582 924.76 496.117 918.897 490.688 913 C484.969 906.791 479.195 900.635 473.418 894.48 C468.052 888.764 462.706 883.03 457.359 877.296 C454.448 874.176 451.537 871.057 448.625 867.938 C447.458 866.688 446.292 865.438 445.125 864.188 C444.548 863.569 443.97 862.95 443.375 862.312 C441.625 860.438 439.875 858.562 438.125 856.688 C437.547 856.069 436.97 855.45 436.375 854.812 C435.209 853.564 434.044 852.315 432.879 851.067 C429.939 847.916 426.998 844.766 424.055 841.617 C418.582 835.76 413.117 829.897 407.688 824 C401.969 817.791 396.195 811.635 390.418 805.48 C385.052 799.764 379.706 794.03 374.359 788.296 C372.032 785.802 369.704 783.308 367.377 780.814 C366.211 779.565 365.045 778.316 363.879 777.067 C360.939 773.916 357.998 770.766 355.055 767.617 C349.582 761.76 344.117 755.897 338.688 750 C332.969 743.791 327.195 737.635 321.418 731.48 C316.052 725.764 310.706 720.03 305.359 714.296 C302.448 711.176 299.537 708.057 296.625 704.938 C295.458 703.688 294.292 702.438 293.125 701.188 C292.836 700.878 292.836 700.878 291.375 699.312 C289.625 697.438 287.875 695.562 286.125 693.688 C285.836 693.378 285.836 693.378 284.375 691.812 C283.209 690.564 282.044 689.315 280.879 688.067 C277.939 684.916 274.998 681.766 272.055 678.617 C266.582 672.76 261.117 666.897 255.688 661 C249.969 654.791 244.195 648.635 238.418 642.48 C233.052 636.764 227.706 631.03 222.359 625.296 C220.032 622.802 217.704 620.308 215.377 617.814 C214.211 616.565 213.045 615.316 211.879 614.067 C208.939 610.916 205.998 607.766 203.055 604.617 C197.582 598.76 192.117 592.897 186.688 587 C180.969 580.791 175.195 574.635 169.418 568.48 C164.052 562.764 158.706 557.03 153.359 551.296 C151.032 548.802 148.704 546.308 146.377 543.814 C145.211 542.565 144.045 541.316 142.879 540.067 C139.939 536.916 136.998 533.766 134.055 530.617 C128.582 524.76 123.117 518.897 117.688 513 C111.969 506.791 106.195 500.635 100.418 494.48 C95.052 488.764 89.706 483.03 84.359 477.296 C82.032 474.801 79.703 472.307 77.375 469.812 C76.215 468.569 75.054 467.326 73.895 466.082 C70.871 462.84 67.843 459.603 64.809 456.371 C64.181 455.702 63.554 455.033 62.908 454.344 C61.717 453.073 60.524 451.803 59.33 450.535 C56.726 447.755 54.196 444.954 51.785 442.004 C51.072 441.157 50.359 440.31 49.625 439.438 C49.295 439.438 48.965 439.438 48.625 439.438 C48.465 487.728 48.341 536.019 48.268 584.309 C48.259 590.008 48.25 595.707 48.24 601.406 C48.239 602.541 48.237 603.676 48.235 604.845 C48.204 623.224 48.149 641.604 48.085 659.983 C48.02 678.838 47.981 697.692 47.966 716.546 C47.957 728.184 47.926 739.821 47.87 751.458 C47.833 759.435 47.821 767.411 47.83 775.388 C47.835 779.992 47.828 784.596 47.791 789.2 C47.757 793.416 47.755 797.63 47.779 801.845 C47.782 803.37 47.773 804.896 47.751 806.42 C47.596 817.829 47.596 817.829 50.17 821.853 C51.9 823.599 53.629 825.014 55.625 826.438 C56.81 827.754 57.982 829.084 59.125 830.438 C61.371 833.044 63.671 835.527 66.125 837.938 C69.219 840.976 72.046 844.185 74.875 847.469 C76.563 849.368 78.313 851.158 80.125 852.938 C83.219 855.976 86.046 859.185 88.875 862.469 C91.075 864.944 93.419 867.245 95.781 869.563 C97.558 871.37 99.219 873.231 100.871 875.152 C104.539 879.37 108.342 883.444 112.188 887.5 C113.603 888.998 115.018 890.497 116.434 891.996 C117.137 892.741 117.841 893.486 118.566 894.253 C121.639 897.513 124.696 900.786 127.75 904.062 C128.319 904.673 128.888 905.283 129.475 905.912 C130.619 907.14 131.763 908.367 132.907 909.595 C135.812 912.71 138.718 915.824 141.625 918.938 C142.792 920.187 143.958 921.437 145.125 922.688 C145.702 923.306 146.28 923.925 146.875 924.562 C148.625 926.438 150.375 928.312 152.125 930.188 C152.703 930.806 153.28 931.425 153.875 932.063 C155.041 933.311 156.206 934.56 157.371 935.808 C160.311 938.959 163.252 942.109 166.195 945.258 C171.668 951.115 177.133 956.978 182.562 962.875 C188.281 969.084 194.055 975.24 199.832 981.395 C205.198 987.111 210.544 992.845 215.891 998.579 C218.802 1001.699 221.713 1004.818 224.625 1007.938 C225.792 1009.187 226.958 1010.437 228.125 1011.688 C228.414 1011.997 228.414 1011.997 229.875 1013.562 C231.625 1015.438 233.375 1017.312 235.125 1019.188 C235.414 1019.497 235.414 1019.497 236.875 1021.063 C238.041 1022.311 239.206 1023.56 240.371 1024.808 C243.311 1027.959 246.252 1031.109 249.195 1034.258 C254.668 1040.115 260.133 1045.978 265.562 1051.875 C271.281 1058.084 277.055 1064.24 282.832 1070.395 C288.198 1076.111 293.544 1081.845 298.891 1087.579 C301.218 1090.073 303.546 1092.567 305.873 1095.061 C307.039 1096.31 308.205 1097.559 309.371 1098.808 C312.311 1101.959 315.252 1105.109 318.195 1108.258 C323.668 1114.115 329.133 1119.978 334.562 1125.875 C340.281 1132.084 346.055 1138.24 351.832 1144.395 C357.198 1150.111 362.544 1155.845 367.891 1161.579 C370.802 1164.699 373.713 1167.818 376.625 1170.938 C377.792 1172.187 378.958 1173.437 380.125 1174.688 C380.702 1175.306 381.28 1175.925 381.875 1176.562 C382.75 1177.5 382.75 1177.5 387.125 1182.188 C387.703 1182.806 388.28 1183.425 388.875 1184.063 C390.041 1185.311 391.206 1186.56 392.371 1187.808 C395.311 1190.959 398.252 1194.109 401.195 1197.258 C406.668 1203.115 412.133 1208.978 417.562 1214.875 C423.281 1221.084 429.055 1227.24 434.832 1233.395 C440.198 1239.111 445.544 1244.845 450.891 1250.579 C453.218 1253.073 455.546 1255.567 457.873 1258.061 C459.039 1259.31 460.205 1260.559 461.371 1261.808 C464.311 1264.959 467.252 1268.109 470.195 1271.258 C475.668 1277.115 481.133 1282.978 486.562 1288.875 C492.281 1295.084 498.055 1301.24 503.832 1307.395 C509.198 1313.111 514.544 1318.845 519.891 1324.579 C522.802 1327.699 525.713 1330.818 528.625 1333.938 C529.792 1335.187 530.958 1336.437 532.125 1337.688 C532.702 1338.306 533.28 1338.925 533.875 1339.562 C535.625 1341.438 537.375 1343.313 539.125 1345.188 C539.703 1345.806 540.28 1346.425 540.875 1347.063 C542.041 1348.311 543.206 1349.56 544.371 1350.808 C547.311 1353.959 550.252 1357.109 553.195 1360.258 C553.784 1360.888 554.372 1361.517 554.978 1362.166 C556.152 1363.422 557.326 1364.678 558.5 1365.933 C561.327 1368.959 564.14 1371.995 566.926 1375.059 C567.455 1375.639 567.984 1376.218 568.529 1376.816 C569.508 1377.891 570.484 1378.969 571.456 1380.051 C574.914 1383.845 578.67 1387.169 582.625 1390.438 C583.473 1389.529 584.321 1388.62 585.195 1387.684 C585.755 1387.084 586.315 1386.484 586.891 1385.867 C588.147 1384.521 589.404 1383.175 590.66 1381.829 C593.855 1378.404 597.052 1374.98 600.25 1371.559 C606.229 1365.16 612.195 1358.749 618.13 1352.309 C623.944 1346.002 629.785 1339.72 635.625 1333.438 C631.596 1327.68 627.103 1322.799 622.078 1317.887 C619.325 1315.138 616.797 1312.254 614.27 1309.301 C612.111 1306.855 609.795 1304.595 607.468 1302.312 C605.691 1300.505 604.03 1298.644 602.379 1296.723 C598.711 1292.505 594.908 1288.431 591.062 1284.375 C589.647 1282.877 588.232 1281.378 586.816 1279.879 C586.113 1279.134 585.409 1278.389 584.684 1277.622 C581.611 1274.362 578.554 1271.089 575.5 1267.812 C574.931 1267.202 574.362 1266.592 573.775 1265.963 C572.631 1264.735 571.487 1263.508 570.343 1262.28 C567.438 1259.165 564.532 1256.051 561.625 1252.938 C560.458 1251.688 559.292 1250.438 558.125 1249.188 C557.548 1248.569 556.97 1247.95 556.375 1247.312 C554.625 1245.437 552.875 1243.563 551.125 1241.688 C550.547 1241.069 549.97 1240.45 549.375 1239.812 C548.209 1238.564 547.044 1237.315 545.879 1236.067 C542.939 1232.916 539.998 1229.766 537.055 1226.617 C531.582 1220.76 526.117 1214.897 520.688 1209 C514.969 1202.791 509.195 1196.635 503.418 1190.48 C498.052 1184.764 492.706 1179.03 487.359 1173.296 C485.032 1170.802 482.704 1168.308 480.377 1165.814 C479.211 1164.565 478.045 1163.316 476.879 1162.067 C473.939 1158.916 470.998 1155.766 468.055 1152.617 C462.582 1146.76 457.117 1140.897 451.688 1135 C445.969 1128.791 440.195 1122.635 434.418 1116.48 C429.052 1110.764 423.706 1105.03 418.359 1099.296 C415.448 1096.176 412.537 1093.057 409.625 1089.938 C408.458 1088.688 407.292 1087.438 406.125 1086.188 C405.548 1085.569 404.97 1084.95 404.375 1084.312 C402.625 1082.437 400.875 1080.563 399.125 1078.688 C398.547 1078.069 397.97 1077.45 397.375 1076.812 C396.209 1075.564 395.044 1074.315 393.879 1073.067 C390.939 1069.916 387.998 1066.766 385.055 1063.617 C379.582 1057.76 374.117 1051.897 368.688 1046 C362.969 1039.791 357.195 1033.635 351.418 1027.48 C346.052 1021.764 340.706 1016.03 335.359 1010.296 C333.032 1007.802 330.704 1005.308 328.377 1002.814 C327.211 1001.565 326.045 1000.316 324.879 999.067 C321.939 995.916 318.998 992.766 316.055 989.617 C310.582 983.76 305.117 977.897 299.688 972 C293.969 965.791 288.195 959.635 282.418 953.48 C277.052 947.764 271.706 942.03 266.359 936.296 C263.448 933.176 260.537 930.057 257.625 926.938 C256.458 925.688 255.292 924.438 254.125 923.188 C253.836 922.878 253.836 922.878 252.375 921.312 C250.625 919.438 248.875 917.562 247.125 915.688 C246.836 915.378 246.836 915.378 245.375 913.812 C244.209 912.564 243.044 911.315 241.879 910.067 C238.939 906.916 235.998 903.766 233.055 900.617 C227.582 894.76 222.117 888.897 216.688 883 C210.969 876.791 205.195 870.635 199.418 864.48 C194.052 858.764 188.706 853.03 183.359 847.296 C181.032 844.802 178.704 842.308 176.377 839.814 C175.211 838.565 174.045 837.316 172.879 836.067 C169.939 832.916 166.998 829.766 164.055 826.617 C158.097 820.241 152.154 813.853 146.245 807.432 C143.442 804.391 140.623 801.365 137.789 798.352 C137.459 798.001 137.459 798.001 135.789 796.224 C134.515 794.871 133.24 793.519 131.963 792.168 C118.272 777.628 109.933 765.868 110.155 745.162 C110.615 731.461 115.82 719.665 125.812 710.125 C136.679 701.063 149.608 697.086 163.625 697.438 C181.913 699.424 194.442 708.823 206.016 722.574 C207.642 724.457 209.349 726.196 211.125 727.938 C214.219 730.976 217.046 734.185 219.875 737.469 C221.563 739.368 223.313 741.158 225.125 742.938 C228.219 745.976 231.046 749.185 233.875 752.469 C236.075 754.944 238.419 757.245 240.781 759.563 C242.558 761.37 244.219 763.231 245.871 765.152 C249.539 769.37 253.342 773.444 257.188 777.5 C258.603 778.998 260.018 780.497 261.434 781.996 C262.137 782.741 262.841 783.486 263.566 784.253 C266.639 787.513 269.696 790.786 272.75 794.062 C273.319 794.673 273.888 795.283 274.475 795.912 C275.619 797.14 276.763 798.367 277.907 799.595 C280.812 802.71 283.718 805.824 286.625 808.938 C287.792 810.187 288.958 811.437 290.125 812.688 C290.414 812.997 290.414 812.997 291.875 814.562 C293.625 816.438 295.375 818.312 297.125 820.188 C297.414 820.497 297.414 820.497 298.875 822.063 C300.041 823.311 301.206 824.56 302.371 825.808 C305.311 828.959 308.252 832.109 311.195 835.258 C316.668 841.115 322.133 846.978 327.562 852.875 C333.281 859.084 339.055 865.24 344.832 871.395 C350.198 877.111 355.544 882.845 360.891 888.579 C363.802 891.699 366.713 894.818 369.625 897.938 C370.792 899.187 371.958 900.437 373.125 901.688 C373.702 902.306 374.28 902.925 374.875 903.562 C375.75 904.5 375.75 904.5 380.125 909.188 C380.703 909.806 381.28 910.425 381.875 911.063 C383.041 912.311 384.206 913.56 385.371 914.808 C388.311 917.959 391.252 921.109 394.195 924.258 C399.668 930.115 405.133 935.978 410.562 941.875 C416.281 948.084 422.055 954.24 427.832 960.395 C433.198 966.111 438.544 971.845 443.891 977.579 C446.218 980.073 448.546 982.567 450.873 985.061 C452.039 986.31 453.205 987.559 454.371 988.808 C457.311 991.959 460.252 995.109 463.195 998.258 C468.668 1004.115 474.133 1009.978 479.562 1015.875 C485.281 1022.084 491.055 1028.24 496.832 1034.395 C502.198 1040.111 507.544 1045.845 512.891 1051.579 C515.802 1054.699 518.713 1057.818 521.625 1060.938 C522.792 1062.187 523.958 1063.437 525.125 1064.688 C525.702 1065.306 526.28 1065.925 526.875 1066.562 C528.625 1068.438 530.375 1070.312 532.125 1072.188 C532.703 1072.806 533.28 1073.425 533.875 1074.063 C535.041 1075.311 536.206 1076.56 537.371 1077.808 C540.311 1080.959 543.252 1084.109 546.195 1087.258 C551.668 1093.115 557.133 1098.978 562.562 1104.875 C568.281 1111.084 574.055 1117.24 579.832 1123.395 C585.198 1129.111 590.544 1134.845 595.891 1140.579 C598.218 1143.073 600.546 1145.567 602.873 1148.061 C604.039 1149.31 605.205 1150.559 606.371 1151.808 C609.311 1154.959 612.252 1158.109 615.195 1161.258 C620.668 1167.115 626.133 1172.978 631.562 1178.875 C637.281 1185.084 643.055 1191.24 648.832 1197.395 C654.198 1203.111 659.544 1208.845 664.891 1214.579 C667.218 1217.073 669.546 1219.567 671.874 1222.061 C673.038 1223.309 674.202 1224.556 675.366 1225.804 C678.331 1228.981 681.297 1232.156 684.266 1235.328 C691.111 1242.646 697.912 1249.998 704.625 1257.438 C708.525 1255.877 710.675 1253.427 713.438 1250.312 C714.416 1249.222 715.395 1248.132 716.375 1247.043 C716.898 1246.46 717.422 1245.876 717.961 1245.275 C720.91 1242.018 723.926 1238.824 726.938 1235.625 C728.224 1234.255 729.511 1232.886 730.797 1231.516 C731.116 1231.176 731.116 1231.176 732.729 1229.459 C737.458 1224.418 742.168 1219.36 746.882 1214.305 C748.651 1212.41 750.421 1210.515 752.191 1208.621 C757.666 1202.763 763.131 1196.898 768.562 1191 C774.281 1184.791 780.055 1178.635 785.832 1172.48 C789.457 1168.618 793.074 1164.748 796.688 1160.875 C796.974 1160.568 796.974 1160.568 798.425 1159.012 C799.581 1157.774 800.736 1156.535 801.891 1155.296 C804.218 1152.802 806.546 1150.308 808.873 1147.814 C810.039 1146.565 811.205 1145.316 812.371 1144.067 C815.311 1140.916 818.252 1137.766 821.195 1134.617 C826.668 1128.76 832.133 1122.897 837.562 1117 C842.017 1112.164 846.501 1107.357 851 1102.562 C851.314 1102.228 851.314 1102.228 852.902 1100.535 C854.174 1099.18 855.446 1097.825 856.718 1096.469 C873.688 1078.387 873.688 1078.387 880.625 1070.438 C877.559 1065.142 873.508 1061.221 869.148 1056.957 C866.371 1054.184 863.819 1051.28 861.27 1048.301 C859.082 1045.823 856.732 1043.534 854.375 1041.219 C851.919 1038.719 849.662 1036.061 847.375 1033.406 C845.687 1031.507 843.937 1029.717 842.125 1027.938 C839.031 1024.899 836.204 1021.69 833.375 1018.406 C831.687 1016.507 829.937 1014.717 828.125 1012.938 C825.031 1009.899 822.204 1006.69 819.375 1003.406 C817.175 1000.931 814.831 998.63 812.469 996.312 C810.692 994.505 809.031 992.644 807.379 990.723 C803.711 986.505 799.908 982.431 796.062 978.375 C794.647 976.877 793.232 975.378 791.816 973.879 C791.113 973.134 790.409 972.389 789.684 971.622 C786.611 968.362 783.554 965.089 780.5 961.812 C779.931 961.202 779.362 960.592 778.775 959.963 C777.631 958.735 776.487 957.508 775.343 956.28 C772.438 953.165 769.532 950.051 766.625 946.938 C765.458 945.688 764.292 944.438 763.125 943.188 C762.548 942.569 761.97 941.95 761.375 941.312 C754.958 934.438 748.542 927.562 742.125 920.688 C741.547 920.069 740.97 919.45 740.375 918.812 C739.209 917.564 738.044 916.315 736.879 915.067 C733.939 911.916 730.998 908.766 728.055 905.617 C722.582 899.76 717.117 893.897 711.688 888 C705.969 881.791 700.195 875.635 694.418 869.48 C689.052 863.764 683.706 858.03 678.359 852.296 C676.032 849.802 673.704 847.308 671.377 844.814 C670.211 843.565 669.045 842.316 667.879 841.067 C664.939 837.916 661.998 834.766 659.055 831.617 C653.582 825.76 648.117 819.897 642.688 814 C636.969 807.791 631.195 801.635 625.418 795.48 C620.052 789.764 614.706 784.03 609.359 778.296 C607.032 775.802 604.704 773.308 602.377 770.814 C601.211 769.565 600.045 768.316 598.879 767.067 C595.939 763.916 592.998 760.766 590.055 757.617 C584.582 751.76 579.117 745.897 573.688 740 C567.969 733.791 562.195 727.635 556.418 721.48 C551.052 715.764 545.706 710.03 540.359 704.296 C537.448 701.176 534.537 698.057 531.625 694.938 C530.458 693.688 529.292 692.438 528.125 691.188 C527.548 690.569 526.97 689.95 526.375 689.312 C524.625 687.438 522.875 685.562 521.125 683.688 C520.547 683.069 519.97 682.45 519.375 681.812 C518.209 680.564 517.044 679.315 515.879 678.067 C512.939 674.916 509.998 671.766 507.055 668.617 C501.582 662.76 496.117 656.897 490.688 651 C484.969 644.791 479.195 638.635 473.418 632.48 C468.052 626.764 462.706 621.03 457.359 615.296 C455.032 612.802 452.704 610.308 450.377 607.814 C449.211 606.565 448.045 605.316 446.879 604.067 C443.939 600.916 440.998 597.766 438.055 594.617 C432.582 588.76 427.117 582.897 421.688 577 C415.969 570.791 410.195 564.635 404.418 558.48 C399.052 552.764 393.706 547.03 388.359 541.296 C385.448 538.176 382.537 535.057 379.625 531.938 C378.458 530.688 377.292 529.438 376.125 528.188 C375.548 527.569 374.97 526.95 374.375 526.312 C372.625 524.437 370.875 522.563 369.125 520.688 C368.547 520.069 367.97 519.45 367.375 518.812 C366.209 517.564 365.044 516.315 363.879 515.067 C360.939 511.916 357.998 508.766 355.055 505.617 C349.582 499.76 344.117 493.897 338.688 488 C332.969 481.791 327.195 475.635 321.418 469.48 C316.052 463.764 310.706 458.03 305.359 452.296 C303.032 449.802 300.704 447.308 298.377 444.814 C297.211 443.565 296.045 442.316 294.879 441.067 C291.939 437.916 288.998 434.766 286.055 431.617 C280.582 425.76 275.117 419.897 269.688 414 C263.969 407.791 258.195 401.635 252.418 395.48 C247.052 389.764 241.706 384.03 236.359 378.296 C233.448 375.176 230.537 372.057 227.625 368.938 C226.458 367.688 225.292 366.438 224.125 365.188 C223.548 364.569 222.97 363.95 222.375 363.312 C220.625 361.438 218.875 359.562 217.125 357.688 C216.547 357.069 215.97 356.45 215.375 355.812 C214.209 354.564 213.044 353.315 211.879 352.067 C208.939 348.916 205.998 345.766 203.055 342.617 C197.582 336.76 192.117 330.897 186.688 325 C180.969 318.791 175.195 312.635 169.418 306.48 C164.052 300.764 158.706 295.03 153.359 289.296 C151.032 286.802 148.704 284.308 146.377 281.814 C145.211 280.565 144.045 279.316 142.879 278.067 C139.939 274.916 136.998 271.766 134.055 268.617 C128.582 262.76 123.117 256.897 117.688 251 C111.969 244.791 106.195 238.635 100.418 232.48 C95.052 226.764 89.706 221.03 84.359 215.296 C82.032 212.801 79.703 210.307 77.375 207.812 C76.215 206.569 75.054 205.326 73.895 204.082 C70.871 200.84 67.843 197.603 64.809 194.371 C64.181 193.702 63.554 193.033 62.908 192.344 C61.717 191.073 60.524 189.803 59.33 188.535 C56.726 185.755 54.196 182.954 51.785 180.004 C51.072 179.157 50.359 178.31 49.625 177.438 C49.295 177.438 48.965 177.438 48.625 177.438 Z " fill="#246387" transform="translate(200.375,232.5625)"/>
<path d="M0 0 C10.447 7.56 17.362 19.402 20 32 C20.1 33.892 20.146 35.787 20.158 37.682 C20.168 38.84 20.178 39.999 20.188 41.192 C20.194 42.459 20.199 43.725 20.205 45.03 C20.215 46.381 20.225 47.731 20.235 49.081 C20.262 52.744 20.283 56.407 20.303 60.07 C20.325 63.899 20.353 67.728 20.379 71.557 C20.429 78.806 20.474 86.056 20.517 93.305 C20.567 101.559 20.622 109.813 20.677 118.067 C20.791 135.045 20.898 152.022 21 169 C21.465 168.463 21.929 167.926 22.408 167.373 C23.026 166.662 23.644 165.951 24.281 165.219 C24.89 164.517 25.499 163.815 26.127 163.092 C27.859 161.157 29.645 159.317 31.5 157.5 C33.954 155.089 36.254 152.606 38.5 150 C41.282 146.77 44.21 143.767 47.25 140.781 C49.082 138.916 50.794 136.981 52.5 135 C54.746 132.394 57.046 129.911 59.5 127.5 C61.814 125.222 64.005 122.897 66.125 120.438 C67.415 118.957 68.707 117.478 70 116 C70.231 115.734 70.231 115.734 71.399 114.391 C82.148 102.115 93.311 92.668 110 90 C125.969 88.963 139.308 92.414 151.75 102.688 C161.184 111.565 167.361 124.156 168.203 137.129 C168.458 155.804 162.253 168.268 149.485 181.454 C147.527 183.492 145.619 185.573 143.71 187.656 C137.462 194.477 131.124 201.213 124.793 207.957 C121.168 211.819 117.551 215.689 113.938 219.562 C113.364 220.177 112.791 220.792 112.2 221.425 C111.044 222.664 109.889 223.902 108.734 225.141 C106.407 227.636 104.079 230.13 101.752 232.623 C100.586 233.872 99.42 235.122 98.254 236.371 C95.314 239.522 92.373 242.672 89.43 245.82 C83.957 251.677 78.492 257.541 73.062 263.438 C67.344 269.646 61.57 275.803 55.793 281.957 C52.168 285.819 48.551 289.689 44.938 293.562 C44.655 293.866 44.655 293.866 43.224 295.399 C40.187 298.654 37.152 301.911 34.117 305.168 C33.48 305.851 32.844 306.534 32.188 307.238 C30.968 308.547 29.748 309.856 28.529 311.166 C27.979 311.756 27.43 312.346 26.863 312.953 C26.382 313.47 25.9 313.988 25.404 314.521 C24 316 24 316 22.436 317.065 C20.115 320.194 20.593 323.694 20.626 327.441 C20.622 328.317 20.619 329.193 20.614 330.096 C20.605 333.059 20.617 336.021 20.628 338.983 C20.626 341.118 20.622 343.253 20.617 345.388 C20.606 351.275 20.615 357.163 20.626 363.05 C20.635 369.392 20.626 375.734 20.62 382.075 C20.611 393.073 20.612 404.07 20.62 415.067 C20.631 430.981 20.622 446.894 20.607 462.807 C20.6 470.219 20.594 477.631 20.589 485.043 C20.588 485.414 20.588 485.414 20.587 487.292 C20.573 504.964 20.569 522.636 20.566 540.308 C20.566 541.081 20.566 541.855 20.566 542.652 C20.563 559.905 20.562 577.158 20.563 594.412 C20.564 601.447 20.564 608.483 20.564 615.519 C20.564 615.905 20.564 615.905 20.564 617.857 C20.565 635.48 20.562 653.103 20.548 670.726 C20.547 671.467 20.547 672.208 20.546 672.972 C20.54 680.372 20.533 687.772 20.526 695.172 C20.509 711.064 20.503 726.955 20.518 742.847 C20.529 754.437 20.526 766.028 20.509 777.619 C20.501 783.897 20.498 790.174 20.514 796.452 C20.528 802.202 20.523 807.952 20.504 813.701 C20.501 815.779 20.504 817.856 20.514 819.934 C20.615 840.97 15.619 854.589 1 870 C-0.068 871.145 -1.134 872.291 -2.199 873.438 C-5.182 876.647 -8.174 879.847 -11.169 883.044 C-14.117 886.193 -17.058 889.347 -20 892.5 C-21.167 893.75 -22.333 895 -23.5 896.25 C-23.789 896.559 -23.789 896.559 -25.25 898.125 C-44.5 918.75 -44.5 918.75 -46.25 920.625 C-47.416 921.874 -48.581 923.122 -49.746 924.371 C-52.686 927.522 -55.627 930.672 -58.57 933.82 C-64.043 939.677 -69.508 945.541 -74.938 951.438 C-80.656 957.646 -86.43 963.803 -92.207 969.957 C-95.832 973.819 -99.449 977.689 -103.062 981.562 C-103.349 981.87 -103.349 981.87 -104.8 983.425 C-105.956 984.664 -107.111 985.902 -108.266 987.141 C-111.177 990.261 -114.088 993.381 -117 996.5 C-118.167 997.75 -119.333 999 -120.5 1000.25 C-141.5 1022.75 -141.5 1022.75 -143.251 1024.626 C-144.414 1025.873 -145.578 1027.119 -146.741 1028.366 C-149.705 1031.543 -152.672 1034.718 -155.641 1037.891 C-162.486 1045.208 -169.287 1052.56 -176 1060 C-182.421 1054.893 -187.782 1048.918 -193.286 1042.871 C-196.287 1039.595 -199.332 1036.362 -202.375 1033.125 C-203.652 1031.764 -204.93 1030.404 -206.207 1029.043 C-206.838 1028.371 -207.469 1027.698 -208.12 1027.005 C-212.259 1022.591 -216.385 1018.164 -220.512 1013.738 C-222.907 1011.17 -225.306 1008.605 -227.707 1006.043 C-233.893 999.438 -240.049 992.819 -246 986 C-244.66 982.993 -243.202 981.002 -240.812 978.75 C-238.243 976.26 -235.831 973.715 -233.5 971 C-230.718 967.77 -227.79 964.767 -224.75 961.781 C-222.918 959.916 -221.206 957.981 -219.5 956 C-216.747 952.804 -213.853 949.828 -210.844 946.875 C-209.067 945.068 -207.406 943.207 -205.754 941.285 C-202.086 937.067 -198.283 932.993 -194.438 928.938 C-193.022 927.439 -191.607 925.94 -190.191 924.441 C-189.488 923.696 -188.784 922.952 -188.059 922.184 C-184.986 918.925 -181.929 915.651 -178.875 912.375 C-178.306 911.765 -177.737 911.154 -177.15 910.525 C-176.006 909.298 -174.862 908.07 -173.718 906.843 C-170.813 903.727 -167.907 900.614 -165 897.5 C-163.833 896.25 -162.667 895 -161.5 893.75 C-154.5 886.25 -154.5 886.25 -152.75 884.375 C-151.584 883.126 -150.419 881.878 -149.254 880.629 C-146.314 877.478 -143.373 874.328 -140.43 871.18 C-134.957 865.323 -129.492 859.459 -124.062 853.562 C-119.608 848.726 -115.124 843.919 -110.625 839.125 C-109.998 838.457 -109.371 837.788 -108.725 837.1 C-106.177 834.385 -103.629 831.67 -101.081 828.956 C-99.219 826.972 -97.359 824.986 -95.5 823 C-94.949 822.414 -94.398 821.827 -93.831 821.223 C-92.788 820.108 -91.756 818.983 -90.737 817.846 C-89 816 -89 816 -87.184 814.447 C-82.781 810.342 -81.498 807.119 -81.139 801.112 C-81.084 798.302 -81.117 795.498 -81.158 792.688 C-81.155 791.122 -81.149 789.555 -81.14 787.989 C-81.124 783.697 -81.152 779.406 -81.188 775.114 C-81.218 770.482 -81.208 765.849 -81.202 761.217 C-81.199 753.194 -81.22 745.172 -81.26 737.15 C-81.317 725.551 -81.335 713.953 -81.344 702.354 C-81.359 683.535 -81.406 664.716 -81.472 645.897 C-81.536 627.618 -81.586 609.339 -81.615 591.06 C-81.617 589.933 -81.619 588.806 -81.621 587.644 C-81.63 581.991 -81.639 576.337 -81.648 570.683 C-81.72 523.789 -81.844 476.894 -82 430 C-83.261 431.247 -84.519 432.496 -85.777 433.746 C-86.479 434.441 -87.18 435.137 -87.902 435.853 C-89.868 437.865 -91.729 439.93 -93.562 442.062 C-96.322 445.273 -99.231 448.254 -102.25 451.219 C-104.082 453.084 -105.794 455.019 -107.5 457 C-110.282 460.23 -113.21 463.233 -116.25 466.219 C-118.082 468.084 -119.794 470.019 -121.5 472 C-124.253 475.196 -127.147 478.172 -130.156 481.125 C-131.933 482.932 -133.594 484.793 -135.246 486.715 C-138.914 490.933 -142.717 495.007 -146.562 499.062 C-147.978 500.561 -149.393 502.06 -150.809 503.559 C-151.512 504.304 -152.216 505.048 -152.941 505.816 C-156.014 509.075 -159.071 512.349 -162.125 515.625 C-162.694 516.235 -163.263 516.846 -163.85 517.475 C-164.994 518.702 -166.138 519.93 -167.282 521.157 C-170.187 524.273 -173.093 527.386 -176 530.5 C-177.167 531.75 -178.333 533 -179.5 534.25 C-200.5 556.75 -200.5 556.75 -202.25 558.625 C-203.416 559.874 -204.581 561.122 -205.746 562.371 C-208.686 565.522 -211.627 568.672 -214.57 571.82 C-220.043 577.677 -225.508 583.541 -230.938 589.438 C-236.656 595.646 -242.43 601.803 -248.207 607.957 C-251.832 611.819 -255.449 615.689 -259.062 619.562 C-259.349 619.87 -259.349 619.87 -260.8 621.425 C-261.956 622.664 -263.111 623.902 -264.266 625.141 C-266.593 627.636 -268.921 630.13 -271.248 632.623 C-272.414 633.872 -273.58 635.122 -274.746 636.371 C-277.686 639.522 -280.627 642.672 -283.57 645.82 C-289.043 651.677 -294.508 657.541 -299.938 663.438 C-305.656 669.646 -311.43 675.803 -317.207 681.957 C-320.832 685.819 -324.449 689.689 -328.062 693.562 C-328.349 693.87 -328.349 693.87 -329.8 695.425 C-330.956 696.664 -332.111 697.902 -333.266 699.141 C-336.177 702.261 -339.088 705.381 -342 708.5 C-343.167 709.75 -344.333 711 -345.5 712.25 C-352.5 719.75 -352.5 719.75 -354.25 721.625 C-355.416 722.874 -356.581 724.122 -357.746 725.371 C-360.686 728.522 -363.627 731.672 -366.57 734.82 C-372.043 740.677 -377.508 746.541 -382.938 752.438 C-388.017 757.953 -393.137 763.431 -398.273 768.894 C-401.482 772.308 -404.68 775.731 -407.855 779.176 C-408.167 779.513 -408.167 779.513 -409.743 781.217 C-410.917 782.489 -412.089 783.763 -413.257 785.041 C-416.629 788.684 -420.119 791.901 -424 795 C-429.661 789.432 -435.232 783.872 -440.391 777.828 C-442.564 775.36 -444.905 773.085 -447.25 770.781 C-449.706 768.281 -451.963 765.623 -454.25 762.969 C-456.45 760.493 -458.795 758.192 -461.158 755.873 C-462.926 754.076 -464.577 752.225 -466.219 750.312 C-470.03 745.929 -473.998 741.709 -478 737.5 C-483.129 732.106 -488.142 726.64 -493 721 C-488.845 715.011 -484.12 709.972 -478.879 704.906 C-476.034 702.104 -473.444 699.107 -470.832 696.088 C-467.79 692.621 -464.611 689.284 -461.438 685.938 C-460.022 684.439 -458.607 682.94 -457.191 681.441 C-456.488 680.696 -455.784 679.952 -455.059 679.184 C-451.986 675.925 -448.929 672.651 -445.875 669.375 C-445.306 668.765 -444.737 668.154 -444.15 667.525 C-443.006 666.298 -441.862 665.07 -440.718 663.843 C-437.813 660.727 -434.907 657.614 -432 654.5 C-430.833 653.25 -429.667 652 -428.5 650.75 C-407.5 628.25 -407.5 628.25 -405.75 626.375 C-404.584 625.126 -403.419 623.878 -402.254 622.629 C-399.314 619.478 -396.373 616.328 -393.43 613.18 C-387.957 607.323 -382.492 601.459 -377.062 595.562 C-371.344 589.354 -365.57 583.197 -359.793 577.043 C-356.168 573.181 -352.551 569.311 -348.938 565.438 C-348.651 565.13 -348.651 565.13 -347.2 563.575 C-346.044 562.336 -344.889 561.098 -343.734 559.859 C-341.407 557.364 -339.079 554.87 -336.752 552.377 C-335.586 551.128 -334.42 549.878 -333.254 548.629 C-330.314 545.478 -327.373 542.328 -324.43 539.18 C-318.957 533.323 -313.492 527.459 -308.062 521.562 C-302.344 515.354 -296.57 509.197 -290.793 503.043 C-287.168 499.181 -283.551 495.311 -279.938 491.438 C-279.364 490.823 -278.791 490.208 -278.2 489.575 C-277.044 488.336 -275.889 487.098 -274.734 485.859 C-271.823 482.739 -268.912 479.619 -266 476.5 C-264.833 475.25 -263.667 474 -262.5 472.75 C-255.5 465.25 -255.5 465.25 -253.75 463.375 C-252.584 462.126 -251.419 460.878 -250.254 459.629 C-247.314 456.478 -244.373 453.328 -241.43 450.18 C-235.957 444.323 -230.492 438.459 -225.062 432.562 C-219.344 426.354 -213.57 420.197 -207.793 414.043 C-204.168 410.181 -200.551 406.311 -196.938 402.438 C-196.364 401.823 -195.791 401.208 -195.2 400.575 C-194.044 399.336 -192.889 398.098 -191.734 396.859 C-189.407 394.364 -187.079 391.87 -184.752 389.377 C-183.586 388.128 -182.42 386.878 -181.254 385.629 C-178.314 382.478 -175.373 379.328 -172.43 376.18 C-166.957 370.323 -161.492 364.459 -156.062 358.562 C-150.344 352.354 -144.57 346.197 -138.793 340.043 C-135.168 336.181 -131.551 332.311 -127.938 328.438 C-127.364 327.823 -126.791 327.208 -126.2 326.575 C-125.044 325.336 -123.889 324.098 -122.734 322.859 C-120.407 320.364 -118.079 317.87 -115.751 315.376 C-114.586 314.128 -113.421 312.88 -112.256 311.631 C-109.304 308.468 -106.35 305.305 -103.395 302.145 C-102.794 301.503 -102.194 300.861 -101.576 300.199 C-100.462 299.007 -99.348 297.816 -98.232 296.625 C-97.164 295.481 -96.112 294.322 -95.077 293.148 C-93 291 -93 291 -90.276 288.886 C-85.068 284.38 -81.907 280.629 -81.031 273.634 C-80.584 266.937 -80.762 260.251 -80.926 253.547 C-80.946 251.075 -80.962 248.604 -80.973 246.132 C-81.015 239.661 -81.123 233.191 -81.245 226.721 C-81.358 220.105 -81.408 213.488 -81.463 206.871 C-81.58 193.913 -81.766 180.957 -82 168 C-83.261 169.247 -84.519 170.496 -85.777 171.746 C-86.479 172.441 -87.18 173.137 -87.902 173.853 C-89.868 175.865 -91.729 177.93 -93.562 180.062 C-96.322 183.273 -99.231 186.254 -102.25 189.219 C-104.082 191.084 -105.794 193.019 -107.5 195 C-110.282 198.23 -113.21 201.233 -116.25 204.219 C-118.082 206.084 -119.794 208.019 -121.5 210 C-124.253 213.196 -127.147 216.172 -130.156 219.125 C-131.933 220.932 -133.594 222.793 -135.246 224.715 C-138.914 228.933 -142.717 233.007 -146.562 237.062 C-147.978 238.561 -149.393 240.06 -150.809 241.559 C-151.512 242.304 -152.216 243.048 -152.941 243.816 C-156.014 247.075 -159.071 250.349 -162.125 253.625 C-162.694 254.235 -163.263 254.846 -163.85 255.475 C-164.994 256.702 -166.138 257.93 -167.282 259.157 C-170.187 262.273 -173.093 265.386 -176 268.5 C-177.167 269.75 -178.333 271 -179.5 272.25 C-200.5 294.75 -200.5 294.75 -202.25 296.625 C-203.416 297.874 -204.581 299.122 -205.746 300.371 C-208.686 303.522 -211.627 306.672 -214.57 309.82 C-220.043 315.677 -225.508 321.541 -230.938 327.438 C-236.656 333.646 -242.43 339.803 -248.207 345.957 C-251.832 349.819 -255.449 353.689 -259.062 357.562 C-259.636 358.177 -260.209 358.792 -260.8 359.425 C-261.956 360.664 -263.111 361.902 -264.266 363.141 C-266.593 365.636 -268.921 368.13 -271.248 370.623 C-272.414 371.872 -273.58 373.122 -274.746 374.371 C-277.686 377.522 -280.627 380.672 -283.57 383.82 C-289.043 389.677 -294.508 395.541 -299.938 401.438 C-305.656 407.646 -311.43 413.803 -317.207 419.957 C-320.832 423.819 -324.449 427.689 -328.062 431.562 C-328.636 432.177 -329.209 432.792 -329.8 433.425 C-330.956 434.664 -332.111 435.902 -333.266 437.141 C-336.177 440.261 -339.088 443.381 -342 446.5 C-343.167 447.75 -344.333 449 -345.5 450.25 C-352.5 457.75 -352.5 457.75 -354.25 459.625 C-355.416 460.874 -356.581 462.122 -357.746 463.371 C-360.686 466.522 -363.627 469.672 -366.57 472.82 C-372.043 478.677 -377.508 484.541 -382.938 490.438 C-388.656 496.646 -394.43 502.803 -400.207 508.957 C-403.832 512.819 -407.449 516.689 -411.062 520.562 C-411.349 520.87 -411.349 520.87 -412.8 522.425 C-413.956 523.664 -415.111 524.902 -416.266 526.141 C-418.593 528.636 -420.921 531.13 -423.248 533.623 C-424.414 534.872 -425.58 536.122 -426.746 537.371 C-429.686 540.522 -432.627 543.672 -435.57 546.82 C-441.043 552.677 -446.508 558.541 -451.938 564.438 C-457.656 570.646 -463.43 576.803 -469.207 582.957 C-472.832 586.819 -476.449 590.689 -480.062 594.562 C-480.349 594.87 -480.349 594.87 -481.8 596.425 C-482.956 597.664 -484.111 598.902 -485.266 600.141 C-488.177 603.261 -491.088 606.381 -494 609.5 C-495.167 610.75 -496.333 612 -497.5 613.25 C-504.5 620.75 -504.5 620.75 -506.25 622.625 C-507.416 623.874 -508.581 625.122 -509.746 626.371 C-512.686 629.522 -515.627 632.672 -518.57 635.82 C-519.159 636.45 -519.747 637.08 -520.354 637.729 C-521.526 638.984 -522.698 640.238 -523.871 641.491 C-526.721 644.543 -529.559 647.605 -532.371 650.691 C-532.909 651.28 -533.447 651.869 -534.001 652.476 C-535.006 653.578 -536.008 654.682 -537.006 655.79 C-539.799 658.848 -542.699 661.499 -546 664 C-559.059 651.118 -559.059 651.118 -564.461 644.758 C-566.605 642.309 -568.929 640.061 -571.25 637.781 C-573.706 635.281 -575.963 632.623 -578.25 629.969 C-579.938 628.07 -581.688 626.28 -583.5 624.5 C-586.594 621.462 -589.421 618.252 -592.25 614.969 C-593.938 613.07 -595.688 611.28 -597.5 609.5 C-600.584 606.471 -603.403 603.273 -606.223 600 C-609.011 596.862 -611.992 593.926 -615 591 C-613.576 586.279 -610.807 583.49 -607.312 580.188 C-606.219 579.127 -605.128 578.064 -604.039 577 C-603.776 576.743 -603.776 576.743 -602.446 575.445 C-600.014 573.014 -597.802 570.409 -595.574 567.793 C-593.415 565.334 -591.083 563.073 -588.75 560.781 C-586.918 558.916 -585.206 556.981 -583.5 555 C-580.718 551.77 -577.79 548.767 -574.75 545.781 C-572.918 543.916 -571.206 541.981 -569.5 540 C-566.718 536.77 -563.79 533.767 -560.75 530.781 C-558.918 528.916 -557.206 526.981 -555.5 525 C-552.747 521.804 -549.853 518.828 -546.844 515.875 C-545.067 514.068 -543.406 512.207 -541.754 510.285 C-538.086 506.067 -534.283 501.993 -530.438 497.938 C-529.022 496.439 -527.607 494.94 -526.191 493.441 C-525.488 492.696 -524.784 491.952 -524.059 491.184 C-520.986 487.925 -517.929 484.651 -514.875 481.375 C-514.306 480.765 -513.737 480.154 -513.15 479.525 C-512.006 478.298 -510.862 477.07 -509.718 475.843 C-506.813 472.727 -503.907 469.614 -501 466.5 C-499.833 465.25 -498.667 464 -497.5 462.75 C-490.5 455.25 -490.5 455.25 -488.75 453.375 C-487.584 452.126 -486.419 450.878 -485.254 449.629 C-482.314 446.478 -479.373 443.328 -476.43 440.18 C-470.957 434.323 -465.492 428.459 -460.062 422.562 C-454.344 416.354 -448.57 410.197 -442.793 404.043 C-439.168 400.181 -435.551 396.311 -431.938 392.438 C-431.364 391.823 -430.791 391.208 -430.2 390.575 C-429.044 389.336 -427.889 388.098 -426.734 386.859 C-423.823 383.739 -420.912 380.619 -418 377.5 C-416.833 376.25 -415.667 375 -414.5 373.75 C-407.5 366.25 -407.5 366.25 -405.75 364.375 C-404.584 363.126 -403.419 361.878 -402.254 360.629 C-399.314 357.478 -396.373 354.328 -393.43 351.18 C-387.957 345.323 -382.492 339.459 -377.062 333.562 C-371.344 327.354 -365.57 321.197 -359.793 315.043 C-356.168 311.181 -352.551 307.311 -348.938 303.438 C-348.364 302.823 -347.791 302.208 -347.2 301.575 C-346.044 300.336 -344.889 299.098 -343.734 297.859 C-341.407 295.364 -339.079 292.87 -336.752 290.377 C-335.586 289.128 -334.42 287.878 -333.254 286.629 C-330.314 283.478 -327.373 280.328 -324.43 277.18 C-318.957 271.323 -313.492 265.459 -308.062 259.562 C-302.344 253.354 -296.57 247.197 -290.793 241.043 C-287.168 237.181 -283.551 233.311 -279.938 229.438 C-279.364 228.823 -278.791 228.208 -278.2 227.575 C-277.044 226.336 -275.889 225.098 -274.734 223.859 C-272.407 221.364 -270.079 218.87 -267.752 216.377 C-266.586 215.128 -265.42 213.878 -264.254 212.629 C-261.314 209.478 -258.373 206.328 -255.43 203.18 C-249.957 197.323 -244.492 191.459 -239.062 185.562 C-233.344 179.354 -227.57 173.197 -221.793 167.043 C-218.168 163.181 -214.551 159.311 -210.938 155.438 C-210.364 154.823 -209.791 154.208 -209.2 153.575 C-208.044 152.336 -206.889 151.098 -205.734 149.859 C-202.823 146.739 -199.912 143.619 -197 140.5 C-195.833 139.25 -194.667 138 -193.5 136.75 C-186.5 129.25 -186.5 129.25 -184.75 127.375 C-183.584 126.126 -182.419 124.878 -181.254 123.629 C-178.314 120.478 -175.373 117.328 -172.43 114.18 C-166.957 108.323 -161.492 102.459 -156.062 96.562 C-150.344 90.354 -144.57 84.197 -138.793 78.043 C-135.168 74.181 -131.551 70.311 -127.938 66.438 C-127.364 65.823 -126.791 65.208 -126.2 64.575 C-125.044 63.336 -123.889 62.098 -122.734 60.859 C-120.407 58.364 -118.079 55.87 -115.752 53.377 C-114.586 52.128 -113.42 50.878 -112.254 49.629 C-109.314 46.478 -106.373 43.328 -103.43 40.18 C-98.412 34.81 -93.396 29.441 -88.415 24.038 C-87.434 22.976 -86.452 21.914 -85.468 20.854 C-82.872 18.052 -80.31 15.226 -77.785 12.359 C-57.19 -10.82 -26.813 -19.073 0 0 Z " fill="#E75B50" transform="translate(1397,243)"/>
<path d="M0 0 C0.686 0.572 1.372 1.145 2.078 1.734 C11.649 10.283 16.35 22.505 17.211 35.082 C17.659 49.615 13.53 62.037 3.812 72.938 C2.215 74.631 0.61 76.318 -1 78 C-2.732 79.893 -4.461 81.789 -6.188 83.688 C-12.148 90.192 -18.175 96.634 -24.202 103.077 C-27.137 106.216 -30.068 109.358 -33 112.5 C-34.167 113.75 -35.333 115 -36.5 116.25 C-37.077 116.869 -37.655 117.487 -38.25 118.125 C-71.5 153.75 -71.5 153.75 -73.25 155.625 C-74.416 156.874 -75.581 158.122 -76.746 159.371 C-79.686 162.522 -82.627 165.672 -85.57 168.82 C-91.043 174.677 -96.508 180.541 -101.938 186.438 C-107.017 191.952 -112.135 197.429 -117.271 202.891 C-120.492 206.318 -123.702 209.754 -126.891 213.211 C-127.518 213.889 -128.145 214.567 -128.792 215.266 C-129.979 216.551 -131.164 217.838 -132.345 219.128 C-135.373 222.399 -138.422 225.313 -142 228 C-143.524 226.503 -145.044 225.003 -146.562 223.5 C-147.409 222.665 -148.256 221.829 -149.129 220.969 C-151.941 218.122 -154.543 215.111 -157.163 212.088 C-160.21 208.624 -163.388 205.285 -166.562 201.938 C-167.978 200.439 -169.393 198.94 -170.809 197.441 C-171.512 196.696 -172.216 195.952 -172.941 195.184 C-177.734 190.1 -182.492 184.981 -187.256 179.869 C-189.069 177.926 -190.886 175.986 -192.703 174.047 C-198.891 167.441 -205.048 160.821 -211 154 C-207.084 148.301 -202.638 143.479 -197.66 138.688 C-194.925 135.924 -192.394 133.043 -189.85 130.106 C-186.8 126.634 -183.617 123.29 -180.438 119.938 C-179.022 118.439 -177.607 116.94 -176.191 115.441 C-175.84 115.069 -175.84 115.069 -174.059 113.184 C-170.986 109.925 -167.929 106.651 -164.875 103.375 C-164.306 102.765 -163.737 102.154 -163.15 101.525 C-162.006 100.298 -160.862 99.07 -159.718 97.843 C-156.813 94.727 -153.907 91.614 -151 88.5 C-149.833 87.25 -148.667 86 -147.5 84.75 C-126.5 62.25 -126.5 62.25 -124.75 60.375 C-123.584 59.126 -122.419 57.878 -121.254 56.629 C-118.314 53.478 -115.373 50.328 -112.43 47.18 C-106.957 41.323 -101.493 35.459 -96.062 29.562 C-89.088 21.998 -82.077 14.469 -75 7 C-74.751 6.736 -74.751 6.736 -73.49 5.398 C-63.972 -4.647 -53.535 -11.813 -39.234 -12.965 C-24.313 -13.2 -11.178 -10.311 0 0 Z " fill="#E75B50" transform="translate(1238,942)"/>
<path d="M0 0 C4.233 2.822 7.172 5.952 8.812 10.875 C8.968 13.748 9.071 16.601 9.129 19.477 C9.15 20.338 9.171 21.2 9.192 22.087 C9.258 24.891 9.317 27.696 9.375 30.5 C9.418 32.414 9.461 34.328 9.504 36.242 C9.804 50.121 9.935 63.992 9.812 77.875 C10.393 78.037 10.974 78.198 11.572 78.364 C18.556 80.375 25.251 82.906 31.988 85.621 C33.116 86.073 34.245 86.526 35.407 86.992 C37.775 87.944 40.143 88.898 42.509 89.854 C46.128 91.314 49.752 92.76 53.377 94.205 C55.685 95.135 57.993 96.065 60.301 96.996 C61.381 97.425 62.461 97.855 63.574 98.297 C75.074 102.978 75.074 102.978 78.688 109 C80.376 113.549 80.397 118.306 78.812 122.875 C74.94 128.779 71.025 131.148 64.312 132.914 C63.489 133.152 62.666 133.39 61.818 133.635 C60.06 134.141 58.299 134.636 56.535 135.122 C53.807 135.876 51.093 136.666 48.379 137.468 C43.792 138.82 39.198 140.144 34.6 141.455 C31.758 142.266 28.918 143.084 26.078 143.902 C24.261 144.422 22.443 144.942 20.625 145.461 C19.781 145.705 18.938 145.948 18.069 146.199 C17.289 146.42 16.51 146.641 15.707 146.869 C15.025 147.064 14.343 147.259 13.64 147.46 C11.812 147.875 11.812 147.875 8.812 147.875 C8.793 148.565 8.773 149.255 8.752 149.966 C8.51 158.173 8.22 166.379 7.901 174.584 C7.841 176.139 7.782 177.693 7.724 179.248 C7.542 184.121 7.338 188.991 7.108 193.862 C7.037 195.445 6.971 197.029 6.912 198.613 C6.827 200.855 6.719 203.095 6.605 205.336 C6.549 206.623 6.493 207.91 6.434 209.236 C5.564 214.33 3.643 218.211 -0.25 221.75 C-4.991 224.503 -9.865 224.427 -15.188 223.875 C-24.673 219.81 -31.32 207.434 -37.38 199.29 C-41.931 193.181 -46.596 187.165 -51.292 181.166 C-51.843 180.461 -52.393 179.757 -52.961 179.031 C-53.44 178.421 -53.918 177.811 -54.412 177.182 C-57.037 173.771 -59.61 170.322 -62.188 166.875 C-67.753 168.06 -73.319 169.248 -78.884 170.437 C-81.802 171.06 -84.722 171.681 -87.641 172.302 C-103.887 175.767 -103.887 175.767 -111.523 177.621 C-112.513 177.86 -113.502 178.099 -114.521 178.345 C-116.223 178.763 -117.921 179.194 -119.616 179.641 C-125.731 181.141 -132.777 181.933 -138.377 178.554 C-141.805 175.849 -144.253 173.235 -145.188 168.875 C-146.196 158.457 -139.996 152.076 -133.875 144.188 C-132.446 142.33 -131.018 140.472 -129.59 138.613 C-129.226 138.141 -129.226 138.141 -127.386 135.749 C-123.233 130.32 -119.149 124.839 -115.061 119.361 C-112.162 115.482 -109.247 111.631 -106.188 107.875 C-107.743 103.385 -110.167 99.64 -112.809 95.73 C-113.268 95.043 -113.727 94.356 -114.201 93.647 C-115.671 91.449 -117.148 89.256 -118.625 87.062 C-119.583 85.631 -120.541 84.199 -121.498 82.768 C-125.405 76.933 -129.324 71.107 -133.329 65.338 C-133.835 64.608 -134.341 63.878 -134.863 63.125 C-135.831 61.732 -136.802 60.341 -137.776 58.953 C-141.529 53.555 -142.863 49.456 -142.188 42.875 C-140.329 37.609 -137.584 35.081 -133.188 31.875 C-127.44 29.959 -122.48 30.818 -116.857 32.743 C-115.649 33.15 -114.441 33.556 -113.197 33.976 C-112.562 34.195 -111.927 34.414 -111.273 34.64 C-109.271 35.331 -107.265 36.007 -105.257 36.68 C-99.553 38.594 -93.859 40.535 -88.167 42.481 C-84.674 43.674 -81.178 44.852 -77.678 46.021 C-75.701 46.687 -73.732 47.369 -71.762 48.052 C-70.563 48.453 -69.365 48.853 -68.13 49.266 C-67.076 49.626 -66.023 49.986 -64.937 50.356 C-62.188 50.875 -62.188 50.875 -59.944 50.1 C-57.604 48.468 -55.883 46.581 -54 44.438 C-53.605 43.988 -53.605 43.988 -51.605 41.715 C-49.3 39.007 -47.048 36.265 -44.812 33.5 C-41.135 28.951 -37.272 24.645 -33.285 20.371 C-30.164 17.004 -27.242 13.527 -24.375 9.938 C-17.706 1.67 -11.044 -3.898 0 0 Z " fill="#C5A582" transform="translate(1110.1875,70.125)"/>
<path d="M0 0 C7.392 4.858 10.107 17.01 13.113 24.871 C13.55 26.004 13.987 27.137 14.437 28.304 C15.351 30.679 16.263 33.055 17.172 35.431 C18.569 39.079 19.976 42.722 21.385 46.365 C22.274 48.679 23.163 50.994 24.051 53.309 C24.473 54.399 24.894 55.49 25.329 56.613 C25.713 57.622 26.097 58.631 26.493 59.67 C26.834 60.557 27.174 61.444 27.524 62.357 C28.25 64.625 28.25 64.625 28.25 67.625 C28.904 67.638 28.904 67.638 32.215 67.701 C37.184 67.797 42.153 67.897 47.122 67.997 C49.251 68.04 51.381 68.082 53.51 68.122 C59.725 68.241 65.94 68.381 72.154 68.547 C74.228 68.599 76.303 68.645 78.377 68.683 C81.375 68.741 84.371 68.823 87.367 68.91 C87.814 68.916 87.814 68.916 90.078 68.946 C95.922 69.15 99.453 70.225 104.25 73.625 C107.994 78.425 108.703 82.077 108.781 88.098 C107.491 94.234 103.208 97.783 98.375 101.375 C97.805 101.801 97.236 102.228 96.649 102.667 C94.859 103.999 93.057 105.315 91.25 106.625 C90.695 107.027 90.14 107.43 89.568 107.844 C86.75 109.878 83.919 111.895 81.082 113.902 C75.846 117.611 70.657 121.388 65.466 125.159 C61.448 128.071 57.401 130.906 53.25 133.625 C54.518 140.862 56.421 147.71 58.727 154.68 C59.404 156.78 60.081 158.88 60.758 160.98 C61.815 164.243 62.876 167.504 63.951 170.761 C64.996 173.937 66.019 177.12 67.039 180.305 C67.361 181.261 67.683 182.218 68.014 183.204 C70.134 189.897 71.39 196.611 70.25 203.625 C67.649 207.904 65.062 211.021 60.25 212.625 C53.55 214.196 48.658 212.655 42.909 209.248 C39.757 207.267 36.641 205.237 33.548 203.164 C31.408 201.731 29.253 200.328 27.086 198.938 C20.844 194.928 14.631 190.882 8.469 186.75 C6.479 185.437 4.49 184.125 2.5 182.812 C1.559 182.171 0.617 181.529 -0.353 180.868 C-0.797 180.577 -0.797 180.577 -3.047 179.105 C-3.441 178.842 -3.441 178.842 -5.433 177.509 C-7.75 176.625 -7.75 176.625 -10.227 177.274 C-12.84 178.673 -15.339 180.146 -17.828 181.758 C-18.32 182.075 -18.32 182.075 -20.812 183.679 C-21.864 184.363 -22.916 185.046 -24 185.75 C-25.666 186.824 -27.331 187.897 -28.997 188.971 C-30.736 190.092 -32.473 191.215 -34.21 192.338 C-38.882 195.358 -43.561 198.367 -48.243 201.371 C-50.422 202.769 -52.6 204.169 -54.776 205.571 C-55.27 205.888 -55.27 205.888 -57.77 207.492 C-58.637 208.05 -59.504 208.608 -60.398 209.183 C-66.284 212.791 -70.844 213.446 -77.75 212.625 C-82.899 210.051 -85.932 207.079 -87.75 201.625 C-88.342 193.782 -86.492 187.516 -84.031 180.109 C-83.654 178.935 -83.277 177.761 -82.888 176.552 C-81.687 172.822 -80.47 169.098 -79.25 165.375 C-78.032 161.637 -76.818 157.898 -75.612 154.155 C-74.863 151.832 -74.107 149.512 -73.342 147.194 C-73.002 146.142 -72.661 145.09 -72.311 144.007 C-72.009 143.086 -71.707 142.165 -71.395 141.216 C-70.732 138.552 -70.53 136.357 -70.75 133.625 C-72.101 132.086 -72.101 132.086 -74.02 130.785 C-74.734 130.287 -75.448 129.788 -76.185 129.275 C-76.969 128.751 -77.754 128.227 -78.562 127.688 C-80.221 126.538 -81.878 125.387 -83.535 124.234 C-84.396 123.642 -85.258 123.05 -86.145 122.439 C-90.328 119.526 -94.411 116.481 -98.5 113.438 C-102.922 110.146 -107.338 106.871 -111.918 103.801 C-123.589 95.947 -123.589 95.947 -125.75 88.625 C-126.384 83.374 -125.638 80.053 -122.75 75.625 C-118.399 71.214 -114.717 69.548 -108.567 69.328 C-108.037 69.308 -108.037 69.308 -105.358 69.207 C-104.211 69.168 -103.064 69.13 -101.883 69.09 C-101.29 69.068 -101.29 69.068 -98.29 68.96 C-95.773 68.869 -93.256 68.781 -90.739 68.695 C-86.925 68.564 -83.111 68.426 -79.297 68.287 C-76.846 68.2 -74.396 68.113 -71.945 68.027 C-70.819 67.987 -69.692 67.946 -68.532 67.904 C-60.935 67.648 -53.351 67.58 -45.75 67.625 C-45.583 67.036 -45.417 66.448 -45.245 65.841 C-43.298 59.138 -40.96 52.648 -38.441 46.141 C-38.033 45.081 -37.625 44.022 -37.205 42.931 C-36.347 40.708 -35.487 38.486 -34.626 36.265 C-33.312 32.874 -32.01 29.478 -30.709 26.082 C-29.871 23.914 -29.031 21.746 -28.191 19.578 C-27.806 18.569 -27.42 17.559 -27.023 16.519 C-21.895 3.391 -21.895 3.391 -15.75 -0.375 C-10.241 -2.211 -5.44 -1.995 0 0 Z " fill="#C5A582" transform="translate(790.75,1.375)"/>
<path d="M0 0 C6.743 4.448 11.466 10.741 16.484 16.98 C19.042 20.064 21.708 23.007 24.438 25.938 C28.776 30.601 32.858 35.416 36.855 40.379 C39.788 43.983 42.853 47.463 45.938 50.938 C53.316 49.467 60.275 47.254 67.383 44.805 C69.782 43.991 72.182 43.177 74.582 42.363 C78.334 41.086 82.084 39.805 85.833 38.518 C89.471 37.271 93.114 36.037 96.758 34.805 C97.875 34.417 98.991 34.03 100.142 33.631 C111.748 29.724 111.748 29.724 118.23 31.602 C122.874 33.957 125.78 35.994 127.938 40.938 C129.001 46.86 128.576 51.534 125.329 56.652 C124.785 57.517 124.24 58.383 123.678 59.274 C120.835 63.624 117.965 67.952 115.043 72.25 C114.41 73.186 113.777 74.121 113.125 75.085 C111.128 78.037 109.127 80.988 107.125 83.938 C105.106 86.916 103.088 89.896 101.071 92.876 C99.822 94.722 98.571 96.567 97.318 98.411 C96.757 99.24 96.196 100.068 95.618 100.922 C95.123 101.651 94.628 102.38 94.118 103.132 C92.938 104.938 92.938 104.938 91.938 106.938 C98.062 115.137 104.21 123.316 110.438 131.438 C114.848 137.197 119.252 142.962 123.625 148.75 C124.13 149.414 124.636 150.078 125.156 150.762 C130.039 157.246 131.933 161.653 130.938 169.938 C129.619 174.352 127.302 177.067 123.375 179.438 C114.351 183.15 103.034 179.05 93.957 176.996 C92.65 176.705 91.343 176.415 90.036 176.126 C86.633 175.371 83.232 174.608 79.832 173.843 C76.347 173.06 72.86 172.285 69.373 171.51 C62.559 169.993 55.748 168.468 48.938 166.938 C47.828 168.194 46.72 169.451 45.614 170.709 C44.997 171.41 44.379 172.11 43.744 172.831 C41.13 175.879 38.749 179.076 36.375 182.312 C31.334 189.111 26.182 195.814 20.957 202.472 C18.334 205.822 15.737 209.176 13.262 212.637 C12.495 213.705 11.728 214.774 10.938 215.875 C10.298 216.792 9.659 217.708 9 218.652 C5.972 222.007 2.824 223.618 -1.625 224.371 C-7.291 224.38 -10.644 223.83 -15.062 219.938 C-20.445 214.264 -20.252 208.396 -20.598 200.965 C-20.641 200.087 -20.684 199.209 -20.728 198.305 C-20.818 196.442 -20.906 194.578 -20.992 192.715 C-21.122 189.936 -21.261 187.159 -21.4 184.381 C-21.989 172.224 -22.174 160.107 -22.062 147.938 C-22.644 147.832 -23.225 147.726 -23.823 147.617 C-30.73 146.305 -37.446 144.534 -44.203 142.602 C-45.329 142.281 -46.455 141.96 -47.615 141.63 C-49.978 140.955 -52.342 140.277 -54.704 139.598 C-58.313 138.562 -61.926 137.543 -65.539 136.523 C-67.844 135.863 -70.149 135.202 -72.453 134.539 C-73.528 134.238 -74.603 133.937 -75.711 133.626 C-82.173 131.745 -87.315 129.96 -91.938 124.875 C-94.023 119.43 -94.102 113.379 -91.812 108 C-88.227 103.775 -85.339 101.349 -80.132 99.28 C-78.938 98.8 -77.743 98.32 -76.513 97.825 C-75.214 97.315 -73.916 96.806 -72.617 96.297 C-71.282 95.765 -69.947 95.233 -68.613 94.7 C-65.823 93.587 -63.031 92.482 -60.236 91.382 C-56.65 89.97 -53.068 88.546 -49.489 87.118 C-46.736 86.02 -43.982 84.926 -41.227 83.834 C-39.906 83.31 -38.585 82.785 -37.263 82.26 C-35.422 81.529 -33.578 80.803 -31.734 80.077 C-31.209 79.87 -31.209 79.87 -28.554 78.822 C-26.062 77.938 -26.062 77.938 -24.062 77.938 C-24.052 77.235 -24.042 76.533 -24.031 75.81 C-23.933 69.147 -23.83 62.484 -23.723 55.821 C-23.668 52.396 -23.615 48.972 -23.565 45.548 C-23.508 41.598 -23.443 37.649 -23.379 33.699 C-23.362 32.487 -23.345 31.275 -23.328 30.027 C-22.953 8.214 -22.953 8.214 -18.062 2.938 C-12.411 -1.638 -6.942 -2.408 0 0 Z " fill="#C5A582" transform="translate(468.0625,70.0625)"/>
</svg>
